<svg width="135" height="135" viewBox="0 0 135 135" fill="none" xmlns="http://www.w3.org/2000/svg">
<path d="M1.69365 3.3873C2.62903 3.3873 3.3873 2.62902 3.3873 1.69365C3.3873 0.758272 2.62903 0 1.69365 0C0.758279 0 0 0.758272 0 1.69365C0 2.62902 0.758279 3.3873 1.69365 3.3873Z" fill="#363949"/>
<path d="M28.0159 3.3873C28.9513 3.3873 29.7096 2.62902 29.7096 1.69365C29.7096 0.758272 28.9513 0 28.0159 0C27.0805 0 26.3223 0.758272 26.3223 1.69365C26.3223 2.62902 27.0805 3.3873 28.0159 3.3873Z" fill="#363949"/>
<path d="M54.3392 3.3873C55.2745 3.3873 56.0328 2.62902 56.0328 1.69365C56.0328 0.758272 55.2745 0 54.3392 0C53.4038 0 52.6455 0.758272 52.6455 1.69365C52.6455 2.62902 53.4038 3.3873 54.3392 3.3873Z" fill="#363949"/>
<path d="M80.6612 3.3873C81.5965 3.3873 82.3548 2.62902 82.3548 1.69365C82.3548 0.758272 81.5965 0 80.6612 0C79.7258 0 78.9675 0.758272 78.9675 1.69365C78.9675 2.62902 79.7258 3.3873 80.6612 3.3873Z" fill="#363949"/>
<path d="M106.984 3.3873C107.919 3.3873 108.678 2.62902 108.678 1.69365C108.678 0.758272 107.919 0 106.984 0C106.049 0 105.29 0.758272 105.29 1.69365C105.29 2.62902 106.049 3.3873 106.984 3.3873Z" fill="#363949"/>
<path d="M133.306 3.3873C134.241 3.3873 135 2.62902 135 1.69365C135 0.758272 134.241 0 133.306 0C132.371 0 131.612 0.758272 131.612 1.69365C131.612 2.62902 132.371 3.3873 133.306 3.3873Z" fill="#363949"/>
<path d="M1.69365 29.71C2.62903 29.71 3.3873 28.9518 3.3873 28.0164C3.3873 27.081 2.62903 26.3228 1.69365 26.3228C0.758279 26.3228 0 27.081 0 28.0164C0 28.9518 0.758279 29.71 1.69365 29.71Z" fill="#363949"/>
<path d="M28.0159 29.71C28.9513 29.71 29.7096 28.9518 29.7096 28.0164C29.7096 27.081 28.9513 26.3228 28.0159 26.3228C27.0805 26.3228 26.3223 27.081 26.3223 28.0164C26.3223 28.9518 27.0805 29.71 28.0159 29.71Z" fill="#363949"/>
<path d="M54.3392 29.71C55.2745 29.71 56.0328 28.9518 56.0328 28.0164C56.0328 27.081 55.2745 26.3228 54.3392 26.3228C53.4038 26.3228 52.6455 27.081 52.6455 28.0164C52.6455 28.9518 53.4038 29.71 54.3392 29.71Z" fill="#363949"/>
<path d="M80.6612 29.71C81.5965 29.71 82.3548 28.9518 82.3548 28.0164C82.3548 27.081 81.5965 26.3228 80.6612 26.3228C79.7258 26.3228 78.9675 27.081 78.9675 28.0164C78.9675 28.9518 79.7258 29.71 80.6612 29.71Z" fill="#363949"/>
<path d="M106.984 29.71C107.919 29.71 108.678 28.9518 108.678 28.0164C108.678 27.081 107.919 26.3228 106.984 26.3228C106.049 26.3228 105.29 27.081 105.29 28.0164C105.29 28.9518 106.049 29.71 106.984 29.71Z" fill="#363949"/>
<path d="M133.306 29.71C134.241 29.71 135 28.9518 135 28.0164C135 27.081 134.241 26.3228 133.306 26.3228C132.371 26.3228 131.612 27.081 131.612 28.0164C131.612 28.9518 132.371 29.71 133.306 29.71Z" fill="#363949"/>
<path d="M1.69365 56.0323C2.62903 56.0323 3.3873 55.274 3.3873 54.3387C3.3873 53.4033 2.62903 52.645 1.69365 52.645C0.758279 52.645 0 53.4033 0 54.3387C0 55.274 0.758279 56.0323 1.69365 56.0323Z" fill="#363949"/>
<path d="M28.0159 56.0323C28.9513 56.0323 29.7096 55.274 29.7096 54.3387C29.7096 53.4033 28.9513 52.645 28.0159 52.645C27.0805 52.645 26.3223 53.4033 26.3223 54.3387C26.3223 55.274 27.0805 56.0323 28.0159 56.0323Z" fill="#363949"/>
<path d="M54.3392 56.0323C55.2745 56.0323 56.0328 55.274 56.0328 54.3387C56.0328 53.4033 55.2745 52.645 54.3392 52.645C53.4038 52.645 52.6455 53.4033 52.6455 54.3387C52.6455 55.274 53.4038 56.0323 54.3392 56.0323Z" fill="#363949"/>
<path d="M80.6612 56.0323C81.5965 56.0323 82.3548 55.274 82.3548 54.3387C82.3548 53.4033 81.5965 52.645 80.6612 52.645C79.7258 52.645 78.9675 53.4033 78.9675 54.3387C78.9675 55.274 79.7258 56.0323 80.6612 56.0323Z" fill="#363949"/>
<path d="M106.984 56.0323C107.919 56.0323 108.678 55.274 108.678 54.3387C108.678 53.4033 107.919 52.645 106.984 52.645C106.049 52.645 105.29 53.4033 105.29 54.3387C105.29 55.274 106.049 56.0323 106.984 56.0323Z" fill="#363949"/>
<path d="M133.306 56.0323C134.241 56.0323 135 55.274 135 54.3387C135 53.4033 134.241 52.645 133.306 52.645C132.371 52.645 131.612 53.4033 131.612 54.3387C131.612 55.274 132.371 56.0323 133.306 56.0323Z" fill="#363949"/>
<path d="M1.69365 82.3548C2.62903 82.3548 3.3873 81.5966 3.3873 80.6612C3.3873 79.7258 2.62903 78.9675 1.69365 78.9675C0.758279 78.9675 0 79.7258 0 80.6612C0 81.5966 0.758279 82.3548 1.69365 82.3548Z" fill="#363949"/>
<path d="M28.0159 82.3548C28.9513 82.3548 29.7096 81.5966 29.7096 80.6612C29.7096 79.7258 28.9513 78.9675 28.0159 78.9675C27.0805 78.9675 26.3223 79.7258 26.3223 80.6612C26.3223 81.5966 27.0805 82.3548 28.0159 82.3548Z" fill="#363949"/>
<path d="M54.3392 82.3548C55.2745 82.3548 56.0328 81.5966 56.0328 80.6612C56.0328 79.7258 55.2745 78.9675 54.3392 78.9675C53.4038 78.9675 52.6455 79.7258 52.6455 80.6612C52.6455 81.5966 53.4038 82.3548 54.3392 82.3548Z" fill="#363949"/>
<path d="M80.6612 82.3548C81.5965 82.3548 82.3548 81.5966 82.3548 80.6612C82.3548 79.7258 81.5965 78.9675 80.6612 78.9675C79.7258 78.9675 78.9675 79.7258 78.9675 80.6612C78.9675 81.5966 79.7258 82.3548 80.6612 82.3548Z" fill="#363949"/>
<path d="M106.984 82.3548C107.919 82.3548 108.678 81.5966 108.678 80.6612C108.678 79.7258 107.919 78.9675 106.984 78.9675C106.049 78.9675 105.29 79.7258 105.29 80.6612C105.29 81.5966 106.049 82.3548 106.984 82.3548Z" fill="#363949"/>
<path d="M133.306 82.3548C134.241 82.3548 135 81.5966 135 80.6612C135 79.7258 134.241 78.9675 133.306 78.9675C132.371 78.9675 131.612 79.7258 131.612 80.6612C131.612 81.5966 132.371 82.3548 133.306 82.3548Z" fill="#363949"/>
<path d="M1.69365 108.678C2.62903 108.678 3.3873 107.919 3.3873 106.984C3.3873 106.049 2.62903 105.29 1.69365 105.29C0.758279 105.29 0 106.049 0 106.984C0 107.919 0.758279 108.678 1.69365 108.678Z" fill="#363949"/>
<path d="M28.0159 108.678C28.9513 108.678 29.7096 107.919 29.7096 106.984C29.7096 106.049 28.9513 105.29 28.0159 105.29C27.0805 105.29 26.3223 106.049 26.3223 106.984C26.3223 107.919 27.0805 108.678 28.0159 108.678Z" fill="#363949"/>
<path d="M54.3392 108.678C55.2745 108.678 56.0328 107.919 56.0328 106.984C56.0328 106.049 55.2745 105.29 54.3392 105.29C53.4038 105.29 52.6455 106.049 52.6455 106.984C52.6455 107.919 53.4038 108.678 54.3392 108.678Z" fill="#363949"/>
<path d="M80.6612 108.678C81.5965 108.678 82.3548 107.919 82.3548 106.984C82.3548 106.049 81.5965 105.29 80.6612 105.29C79.7258 105.29 78.9675 106.049 78.9675 106.984C78.9675 107.919 79.7258 108.678 80.6612 108.678Z" fill="#363949"/>
<path d="M106.984 108.678C107.919 108.678 108.678 107.919 108.678 106.984C108.678 106.049 107.919 105.29 106.984 105.29C106.049 105.29 105.29 106.049 105.29 106.984C105.29 107.919 106.049 108.678 106.984 108.678Z" fill="#363949"/>
<path d="M133.306 108.678C134.241 108.678 135 107.919 135 106.984C135 106.049 134.241 105.29 133.306 105.29C132.371 105.29 131.612 106.049 131.612 106.984C131.612 107.919 132.371 108.678 133.306 108.678Z" fill="#363949"/>
<path d="M1.69365 135C2.62903 135 3.3873 134.242 3.3873 133.306C3.3873 132.371 2.62903 131.613 1.69365 131.613C0.758279 131.613 0 132.371 0 133.306C0 134.242 0.758279 135 1.69365 135Z" fill="#363949"/>
<path d="M28.0159 135C28.9513 135 29.7096 134.242 29.7096 133.306C29.7096 132.371 28.9513 131.613 28.0159 131.613C27.0805 131.613 26.3223 132.371 26.3223 133.306C26.3223 134.242 27.0805 135 28.0159 135Z" fill="#363949"/>
<path d="M54.3392 135C55.2745 135 56.0328 134.242 56.0328 133.306C56.0328 132.371 55.2745 131.613 54.3392 131.613C53.4038 131.613 52.6455 132.371 52.6455 133.306C52.6455 134.242 53.4038 135 54.3392 135Z" fill="#363949"/>
<path d="M80.6612 135C81.5965 135 82.3548 134.242 82.3548 133.306C82.3548 132.371 81.5965 131.613 80.6612 131.613C79.7258 131.613 78.9675 132.371 78.9675 133.306C78.9675 134.242 79.7258 135 80.6612 135Z" fill="#363949"/>
<path d="M106.984 135C107.919 135 108.678 134.242 108.678 133.306C108.678 132.371 107.919 131.613 106.984 131.613C106.049 131.613 105.29 132.371 105.29 133.306C105.29 134.242 106.049 135 106.984 135Z" fill="#363949"/>
<path d="M133.306 135C134.241 135 135 134.242 135 133.306C135 132.371 134.241 131.613 133.306 131.613C132.371 131.613 131.612 132.371 131.612 133.306C131.612 134.242 132.371 135 133.306 135Z" fill="#363949"/>
</svg>
